<svg xmlns="http://www.w3.org/2000/svg" viewBox="0 0 64 64" fill="none">
  <!-- Background circle -->
  <circle cx="32" cy="32" r="30" fill="#1a2e1a"/>
  <circle cx="32" cy="32" r="28" fill="none" stroke="#c8912b" stroke-width="1.5"/>
  
  <!-- Wheat stalks - left side -->
  <g stroke="#c8912b" stroke-width="2.5" stroke-linecap="round" fill="none">
    <path d="M22 52V26c0-3 2-5 5-5s5 2 5 5v21"/>
    <path d="M22 30c-2-4-5-6-5-9s3-5 5-5"/>
    <path d="M22 30c2-4 5-6 5-9s-3-5-5-5"/>
    <path d="M22 38c-2.5-4-6-6-6-10s3.5-6 6-6"/>
    <path d="M22 38c2.5-4 6-6 6-10s-3.5-6-6-6"/>
  </g>
  
  <!-- Wheat stalks - right side -->
  <g stroke="#4a7c4a" stroke-width="2.5" stroke-linecap="round" fill="none">
    <path d="M42 52V26c0-3-2-5-5-5s-5 2-5 5v21"/>
    <path d="M42 30c2-4 5-6 5-9s-3-5-5-5"/>
    <path d="M42 30c-2-4-5-6-5-9s3-5 5-5"/>
    <path d="M42 38c2.5-4 6-6 6-10s-3.5-6-6-6"/>
    <path d="M42 38c-2.5-4-6-6-6-10s3.5-6 6-6"/>
  </g>
  
  <!-- Center AI spark -->
  <circle cx="32" cy="42" r="4" fill="#c8912b"/>
  <circle cx="32" cy="42" r="2" fill="#1a2e1a"/>
  
  <!-- Spark lines -->
  <g stroke="#c8912b" stroke-width="1.5" stroke-linecap="round">
    <path d="M32 50v3"/>
    <path d="M25 47l-2 3"/>
    <path d="M39 47l2 3"/>
  </g>
</svg>